<?xml version="1.0" encoding="utf-8" standalone="no"?>
<!DOCTYPE svg PUBLIC "-//W3C//DTD SVG 1.1//EN"
  "http://www.w3.org/Graphics/SVG/1.1/DTD/svg11.dtd">
<svg xmlns:xlink="http://www.w3.org/1999/xlink" width="460.8pt" height="345.6pt" viewBox="0 0 460.8 345.6" xmlns="http://www.w3.org/2000/svg" version="1.1">
 <metadata>
  <rdf:RDF xmlns:dc="http://purl.org/dc/elements/1.1/" xmlns:cc="http://creativecommons.org/ns#" xmlns:rdf="http://www.w3.org/1999/02/22-rdf-syntax-ns#">
   <cc:Work>
    <dc:type rdf:resource="http://purl.org/dc/dcmitype/StillImage"/>
    <dc:date>2023-07-09T05:58:28.443152</dc:date>
    <dc:format>image/svg+xml</dc:format>
    <dc:creator>
     <cc:Agent>
      <dc:title>Matplotlib v3.7.1, https://matplotlib.org/</dc:title>
     </cc:Agent>
    </dc:creator>
   </cc:Work>
  </rdf:RDF>
 </metadata>
 <defs>
  <style type="text/css">*{stroke-linejoin: round; stroke-linecap: butt}</style>
 </defs>
 <g id="figure_1">
  <g id="patch_1">
   <path d="M 0 345.6 
L 460.8 345.6 
L 460.8 0 
L 0 0 
z
" style="fill: #ffffff"/>
  </g>
  <g id="axes_1">
   <g id="patch_2">
    <path d="M 57.6 307.584 
L 414.72 307.584 
L 414.72 41.472 
L 57.6 41.472 
z
" style="fill: #ffffff"/>
   </g>
   <g id="matplotlib.axis_1">
    <g id="xtick_1">
     <g id="line2d_1">
      <defs>
       <path id="mdf98fb25ae" d="M 0 0 
L 0 3.5 
" style="stroke: #000000; stroke-width: 0.8"/>
      </defs>
      <g>
       <use xlink:href="#mdf98fb25ae" x="73.832727" y="307.584" style="stroke: #000000; stroke-width: 0.8"/>
      </g>
     </g>
     <g id="text_1">
      <!-- 0 -->
      <g transform="translate(70.651477 322.182437) scale(0.1 -0.1)">
       <defs>
        <path id="DejaVuSans-30" d="M 2034 4250 
Q 1547 4250 1301 3770 
Q 1056 3291 1056 2328 
Q 1056 1369 1301 889 
Q 1547 409 2034 409 
Q 2525 409 2770 889 
Q 3016 1369 3016 2328 
Q 3016 3291 2770 3770 
Q 2525 4250 2034 4250 
z
M 2034 4750 
Q 2819 4750 3233 4129 
Q 3647 3509 3647 2328 
Q 3647 1150 3233 529 
Q 2819 -91 2034 -91 
Q 1250 -91 836 529 
Q 422 1150 422 2328 
Q 422 3509 836 4129 
Q 1250 4750 2034 4750 
z
" transform="scale(0.015625)"/>
       </defs>
       <use xlink:href="#DejaVuSans-30"/>
      </g>
     </g>
    </g>
    <g id="xtick_2">
     <g id="line2d_2">
      <g>
       <use xlink:href="#mdf98fb25ae" x="127.941818" y="307.584" style="stroke: #000000; stroke-width: 0.8"/>
      </g>
     </g>
     <g id="text_2">
      <!-- 1000 -->
      <g transform="translate(115.216818 322.182437) scale(0.1 -0.1)">
       <defs>
        <path id="DejaVuSans-31" d="M 794 531 
L 1825 531 
L 1825 4091 
L 703 3866 
L 703 4441 
L 1819 4666 
L 2450 4666 
L 2450 531 
L 3481 531 
L 3481 0 
L 794 0 
L 794 531 
z
" transform="scale(0.015625)"/>
       </defs>
       <use xlink:href="#DejaVuSans-31"/>
       <use xlink:href="#DejaVuSans-30" x="63.623047"/>
       <use xlink:href="#DejaVuSans-30" x="127.246094"/>
       <use xlink:href="#DejaVuSans-30" x="190.869141"/>
      </g>
     </g>
    </g>
    <g id="xtick_3">
     <g id="line2d_3">
      <g>
       <use xlink:href="#mdf98fb25ae" x="182.050909" y="307.584" style="stroke: #000000; stroke-width: 0.8"/>
      </g>
     </g>
     <g id="text_3">
      <!-- 2000 -->
      <g transform="translate(169.325909 322.182437) scale(0.1 -0.1)">
       <defs>
        <path id="DejaVuSans-32" d="M 1228 531 
L 3431 531 
L 3431 0 
L 469 0 
L 469 531 
Q 828 903 1448 1529 
Q 2069 2156 2228 2338 
Q 2531 2678 2651 2914 
Q 2772 3150 2772 3378 
Q 2772 3750 2511 3984 
Q 2250 4219 1831 4219 
Q 1534 4219 1204 4116 
Q 875 4013 500 3803 
L 500 4441 
Q 881 4594 1212 4672 
Q 1544 4750 1819 4750 
Q 2544 4750 2975 4387 
Q 3406 4025 3406 3419 
Q 3406 3131 3298 2873 
Q 3191 2616 2906 2266 
Q 2828 2175 2409 1742 
Q 1991 1309 1228 531 
z
" transform="scale(0.015625)"/>
       </defs>
       <use xlink:href="#DejaVuSans-32"/>
       <use xlink:href="#DejaVuSans-30" x="63.623047"/>
       <use xlink:href="#DejaVuSans-30" x="127.246094"/>
       <use xlink:href="#DejaVuSans-30" x="190.869141"/>
      </g>
     </g>
    </g>
    <g id="xtick_4">
     <g id="line2d_4">
      <g>
       <use xlink:href="#mdf98fb25ae" x="236.16" y="307.584" style="stroke: #000000; stroke-width: 0.8"/>
      </g>
     </g>
     <g id="text_4">
      <!-- 3000 -->
      <g transform="translate(223.435 322.182437) scale(0.1 -0.1)">
       <defs>
        <path id="DejaVuSans-33" d="M 2597 2516 
Q 3050 2419 3304 2112 
Q 3559 1806 3559 1356 
Q 3559 666 3084 287 
Q 2609 -91 1734 -91 
Q 1441 -91 1130 -33 
Q 819 25 488 141 
L 488 750 
Q 750 597 1062 519 
Q 1375 441 1716 441 
Q 2309 441 2620 675 
Q 2931 909 2931 1356 
Q 2931 1769 2642 2001 
Q 2353 2234 1838 2234 
L 1294 2234 
L 1294 2753 
L 1863 2753 
Q 2328 2753 2575 2939 
Q 2822 3125 2822 3475 
Q 2822 3834 2567 4026 
Q 2313 4219 1838 4219 
Q 1578 4219 1281 4162 
Q 984 4106 628 3988 
L 628 4550 
Q 988 4650 1302 4700 
Q 1616 4750 1894 4750 
Q 2613 4750 3031 4423 
Q 3450 4097 3450 3541 
Q 3450 3153 3228 2886 
Q 3006 2619 2597 2516 
z
" transform="scale(0.015625)"/>
       </defs>
       <use xlink:href="#DejaVuSans-33"/>
       <use xlink:href="#DejaVuSans-30" x="63.623047"/>
       <use xlink:href="#DejaVuSans-30" x="127.246094"/>
       <use xlink:href="#DejaVuSans-30" x="190.869141"/>
      </g>
     </g>
    </g>
    <g id="xtick_5">
     <g id="line2d_5">
      <g>
       <use xlink:href="#mdf98fb25ae" x="290.269091" y="307.584" style="stroke: #000000; stroke-width: 0.8"/>
      </g>
     </g>
     <g id="text_5">
      <!-- 4000 -->
      <g transform="translate(277.544091 322.182437) scale(0.1 -0.1)">
       <defs>
        <path id="DejaVuSans-34" d="M 2419 4116 
L 825 1625 
L 2419 1625 
L 2419 4116 
z
M 2253 4666 
L 3047 4666 
L 3047 1625 
L 3713 1625 
L 3713 1100 
L 3047 1100 
L 3047 0 
L 2419 0 
L 2419 1100 
L 313 1100 
L 313 1709 
L 2253 4666 
z
" transform="scale(0.015625)"/>
       </defs>
       <use xlink:href="#DejaVuSans-34"/>
       <use xlink:href="#DejaVuSans-30" x="63.623047"/>
       <use xlink:href="#DejaVuSans-30" x="127.246094"/>
       <use xlink:href="#DejaVuSans-30" x="190.869141"/>
      </g>
     </g>
    </g>
    <g id="xtick_6">
     <g id="line2d_6">
      <g>
       <use xlink:href="#mdf98fb25ae" x="344.378182" y="307.584" style="stroke: #000000; stroke-width: 0.8"/>
      </g>
     </g>
     <g id="text_6">
      <!-- 5000 -->
      <g transform="translate(331.653182 322.182437) scale(0.1 -0.1)">
       <defs>
        <path id="DejaVuSans-35" d="M 691 4666 
L 3169 4666 
L 3169 4134 
L 1269 4134 
L 1269 2991 
Q 1406 3038 1543 3061 
Q 1681 3084 1819 3084 
Q 2600 3084 3056 2656 
Q 3513 2228 3513 1497 
Q 3513 744 3044 326 
Q 2575 -91 1722 -91 
Q 1428 -91 1123 -41 
Q 819 9 494 109 
L 494 744 
Q 775 591 1075 516 
Q 1375 441 1709 441 
Q 2250 441 2565 725 
Q 2881 1009 2881 1497 
Q 2881 1984 2565 2268 
Q 2250 2553 1709 2553 
Q 1456 2553 1204 2497 
Q 953 2441 691 2322 
L 691 4666 
z
" transform="scale(0.015625)"/>
       </defs>
       <use xlink:href="#DejaVuSans-35"/>
       <use xlink:href="#DejaVuSans-30" x="63.623047"/>
       <use xlink:href="#DejaVuSans-30" x="127.246094"/>
       <use xlink:href="#DejaVuSans-30" x="190.869141"/>
      </g>
     </g>
    </g>
    <g id="xtick_7">
     <g id="line2d_7">
      <g>
       <use xlink:href="#mdf98fb25ae" x="398.487273" y="307.584" style="stroke: #000000; stroke-width: 0.8"/>
      </g>
     </g>
     <g id="text_7">
      <!-- 6000 -->
      <g transform="translate(385.762273 322.182437) scale(0.1 -0.1)">
       <defs>
        <path id="DejaVuSans-36" d="M 2113 2584 
Q 1688 2584 1439 2293 
Q 1191 2003 1191 1497 
Q 1191 994 1439 701 
Q 1688 409 2113 409 
Q 2538 409 2786 701 
Q 3034 994 3034 1497 
Q 3034 2003 2786 2293 
Q 2538 2584 2113 2584 
z
M 3366 4563 
L 3366 3988 
Q 3128 4100 2886 4159 
Q 2644 4219 2406 4219 
Q 1781 4219 1451 3797 
Q 1122 3375 1075 2522 
Q 1259 2794 1537 2939 
Q 1816 3084 2150 3084 
Q 2853 3084 3261 2657 
Q 3669 2231 3669 1497 
Q 3669 778 3244 343 
Q 2819 -91 2113 -91 
Q 1303 -91 875 529 
Q 447 1150 447 2328 
Q 447 3434 972 4092 
Q 1497 4750 2381 4750 
Q 2619 4750 2861 4703 
Q 3103 4656 3366 4563 
z
" transform="scale(0.015625)"/>
       </defs>
       <use xlink:href="#DejaVuSans-36"/>
       <use xlink:href="#DejaVuSans-30" x="63.623047"/>
       <use xlink:href="#DejaVuSans-30" x="127.246094"/>
       <use xlink:href="#DejaVuSans-30" x="190.869141"/>
      </g>
     </g>
    </g>
    <g id="text_8">
     <!-- epoch -->
     <g transform="translate(220.931875 335.860562) scale(0.1 -0.1)">
      <defs>
       <path id="DejaVuSans-65" d="M 3597 1894 
L 3597 1613 
L 953 1613 
Q 991 1019 1311 708 
Q 1631 397 2203 397 
Q 2534 397 2845 478 
Q 3156 559 3463 722 
L 3463 178 
Q 3153 47 2828 -22 
Q 2503 -91 2169 -91 
Q 1331 -91 842 396 
Q 353 884 353 1716 
Q 353 2575 817 3079 
Q 1281 3584 2069 3584 
Q 2775 3584 3186 3129 
Q 3597 2675 3597 1894 
z
M 3022 2063 
Q 3016 2534 2758 2815 
Q 2500 3097 2075 3097 
Q 1594 3097 1305 2825 
Q 1016 2553 972 2059 
L 3022 2063 
z
" transform="scale(0.015625)"/>
       <path id="DejaVuSans-70" d="M 1159 525 
L 1159 -1331 
L 581 -1331 
L 581 3500 
L 1159 3500 
L 1159 2969 
Q 1341 3281 1617 3432 
Q 1894 3584 2278 3584 
Q 2916 3584 3314 3078 
Q 3713 2572 3713 1747 
Q 3713 922 3314 415 
Q 2916 -91 2278 -91 
Q 1894 -91 1617 61 
Q 1341 213 1159 525 
z
M 3116 1747 
Q 3116 2381 2855 2742 
Q 2594 3103 2138 3103 
Q 1681 3103 1420 2742 
Q 1159 2381 1159 1747 
Q 1159 1113 1420 752 
Q 1681 391 2138 391 
Q 2594 391 2855 752 
Q 3116 1113 3116 1747 
z
" transform="scale(0.015625)"/>
       <path id="DejaVuSans-6f" d="M 1959 3097 
Q 1497 3097 1228 2736 
Q 959 2375 959 1747 
Q 959 1119 1226 758 
Q 1494 397 1959 397 
Q 2419 397 2687 759 
Q 2956 1122 2956 1747 
Q 2956 2369 2687 2733 
Q 2419 3097 1959 3097 
z
M 1959 3584 
Q 2709 3584 3137 3096 
Q 3566 2609 3566 1747 
Q 3566 888 3137 398 
Q 2709 -91 1959 -91 
Q 1206 -91 779 398 
Q 353 888 353 1747 
Q 353 2609 779 3096 
Q 1206 3584 1959 3584 
z
" transform="scale(0.015625)"/>
       <path id="DejaVuSans-63" d="M 3122 3366 
L 3122 2828 
Q 2878 2963 2633 3030 
Q 2388 3097 2138 3097 
Q 1578 3097 1268 2742 
Q 959 2388 959 1747 
Q 959 1106 1268 751 
Q 1578 397 2138 397 
Q 2388 397 2633 464 
Q 2878 531 3122 666 
L 3122 134 
Q 2881 22 2623 -34 
Q 2366 -91 2075 -91 
Q 1284 -91 818 406 
Q 353 903 353 1747 
Q 353 2603 823 3093 
Q 1294 3584 2113 3584 
Q 2378 3584 2631 3529 
Q 2884 3475 3122 3366 
z
" transform="scale(0.015625)"/>
       <path id="DejaVuSans-68" d="M 3513 2113 
L 3513 0 
L 2938 0 
L 2938 2094 
Q 2938 2591 2744 2837 
Q 2550 3084 2163 3084 
Q 1697 3084 1428 2787 
Q 1159 2491 1159 1978 
L 1159 0 
L 581 0 
L 581 4863 
L 1159 4863 
L 1159 2956 
Q 1366 3272 1645 3428 
Q 1925 3584 2291 3584 
Q 2894 3584 3203 3211 
Q 3513 2838 3513 2113 
z
" transform="scale(0.015625)"/>
      </defs>
      <use xlink:href="#DejaVuSans-65"/>
      <use xlink:href="#DejaVuSans-70" x="61.523438"/>
      <use xlink:href="#DejaVuSans-6f" x="125"/>
      <use xlink:href="#DejaVuSans-63" x="186.181641"/>
      <use xlink:href="#DejaVuSans-68" x="241.162109"/>
     </g>
    </g>
   </g>
   <g id="matplotlib.axis_2">
    <g id="ytick_1">
     <g id="line2d_8">
      <defs>
       <path id="m63881535af" d="M 0 0 
L -3.5 0 
" style="stroke: #000000; stroke-width: 0.8"/>
      </defs>
      <g>
       <use xlink:href="#m63881535af" x="57.6" y="303.385891" style="stroke: #000000; stroke-width: 0.8"/>
      </g>
     </g>
     <g id="text_9">
      <!-- 0.0 -->
      <g transform="translate(34.696875 307.18511) scale(0.1 -0.1)">
       <defs>
        <path id="DejaVuSans-2e" d="M 684 794 
L 1344 794 
L 1344 0 
L 684 0 
L 684 794 
z
" transform="scale(0.015625)"/>
       </defs>
       <use xlink:href="#DejaVuSans-30"/>
       <use xlink:href="#DejaVuSans-2e" x="63.623047"/>
       <use xlink:href="#DejaVuSans-30" x="95.410156"/>
      </g>
     </g>
    </g>
    <g id="ytick_2">
     <g id="line2d_9">
      <g>
       <use xlink:href="#m63881535af" x="57.6" y="261.533901" style="stroke: #000000; stroke-width: 0.8"/>
      </g>
     </g>
     <g id="text_10">
      <!-- 0.1 -->
      <g transform="translate(34.696875 265.33312) scale(0.1 -0.1)">
       <use xlink:href="#DejaVuSans-30"/>
       <use xlink:href="#DejaVuSans-2e" x="63.623047"/>
       <use xlink:href="#DejaVuSans-31" x="95.410156"/>
      </g>
     </g>
    </g>
    <g id="ytick_3">
     <g id="line2d_10">
      <g>
       <use xlink:href="#m63881535af" x="57.6" y="219.681911" style="stroke: #000000; stroke-width: 0.8"/>
      </g>
     </g>
     <g id="text_11">
      <!-- 0.2 -->
      <g transform="translate(34.696875 223.48113) scale(0.1 -0.1)">
       <use xlink:href="#DejaVuSans-30"/>
       <use xlink:href="#DejaVuSans-2e" x="63.623047"/>
       <use xlink:href="#DejaVuSans-32" x="95.410156"/>
      </g>
     </g>
    </g>
    <g id="ytick_4">
     <g id="line2d_11">
      <g>
       <use xlink:href="#m63881535af" x="57.6" y="177.829922" style="stroke: #000000; stroke-width: 0.8"/>
      </g>
     </g>
     <g id="text_12">
      <!-- 0.3 -->
      <g transform="translate(34.696875 181.62914) scale(0.1 -0.1)">
       <use xlink:href="#DejaVuSans-30"/>
       <use xlink:href="#DejaVuSans-2e" x="63.623047"/>
       <use xlink:href="#DejaVuSans-33" x="95.410156"/>
      </g>
     </g>
    </g>
    <g id="ytick_5">
     <g id="line2d_12">
      <g>
       <use xlink:href="#m63881535af" x="57.6" y="135.977932" style="stroke: #000000; stroke-width: 0.8"/>
      </g>
     </g>
     <g id="text_13">
      <!-- 0.4 -->
      <g transform="translate(34.696875 139.777151) scale(0.1 -0.1)">
       <use xlink:href="#DejaVuSans-30"/>
       <use xlink:href="#DejaVuSans-2e" x="63.623047"/>
       <use xlink:href="#DejaVuSans-34" x="95.410156"/>
      </g>
     </g>
    </g>
    <g id="ytick_6">
     <g id="line2d_13">
      <g>
       <use xlink:href="#m63881535af" x="57.6" y="94.125942" style="stroke: #000000; stroke-width: 0.8"/>
      </g>
     </g>
     <g id="text_14">
      <!-- 0.5 -->
      <g transform="translate(34.696875 97.925161) scale(0.1 -0.1)">
       <use xlink:href="#DejaVuSans-30"/>
       <use xlink:href="#DejaVuSans-2e" x="63.623047"/>
       <use xlink:href="#DejaVuSans-35" x="95.410156"/>
      </g>
     </g>
    </g>
    <g id="ytick_7">
     <g id="line2d_14">
      <g>
       <use xlink:href="#m63881535af" x="57.6" y="52.273952" style="stroke: #000000; stroke-width: 0.8"/>
      </g>
     </g>
     <g id="text_15">
      <!-- 0.6 -->
      <g transform="translate(34.696875 56.073171) scale(0.1 -0.1)">
       <use xlink:href="#DejaVuSans-30"/>
       <use xlink:href="#DejaVuSans-2e" x="63.623047"/>
       <use xlink:href="#DejaVuSans-36" x="95.410156"/>
      </g>
     </g>
    </g>
    <g id="text_16">
     <!-- loss -->
     <g transform="translate(28.617188 184.185812) rotate(-90) scale(0.1 -0.1)">
      <defs>
       <path id="DejaVuSans-6c" d="M 603 4863 
L 1178 4863 
L 1178 0 
L 603 0 
L 603 4863 
z
" transform="scale(0.015625)"/>
       <path id="DejaVuSans-73" d="M 2834 3397 
L 2834 2853 
Q 2591 2978 2328 3040 
Q 2066 3103 1784 3103 
Q 1356 3103 1142 2972 
Q 928 2841 928 2578 
Q 928 2378 1081 2264 
Q 1234 2150 1697 2047 
L 1894 2003 
Q 2506 1872 2764 1633 
Q 3022 1394 3022 966 
Q 3022 478 2636 193 
Q 2250 -91 1575 -91 
Q 1294 -91 989 -36 
Q 684 19 347 128 
L 347 722 
Q 666 556 975 473 
Q 1284 391 1588 391 
Q 1994 391 2212 530 
Q 2431 669 2431 922 
Q 2431 1156 2273 1281 
Q 2116 1406 1581 1522 
L 1381 1569 
Q 847 1681 609 1914 
Q 372 2147 372 2553 
Q 372 3047 722 3315 
Q 1072 3584 1716 3584 
Q 2034 3584 2315 3537 
Q 2597 3491 2834 3397 
z
" transform="scale(0.015625)"/>
      </defs>
      <use xlink:href="#DejaVuSans-6c"/>
      <use xlink:href="#DejaVuSans-6f" x="27.783203"/>
      <use xlink:href="#DejaVuSans-73" x="88.964844"/>
      <use xlink:href="#DejaVuSans-73" x="141.064453"/>
     </g>
    </g>
   </g>
   <g id="line2d_15">
    <path d="M 73.832727 108.88613 
L 73.886836 141.246378 
L 73.940945 53.568 
L 73.995055 108.410437 
L 74.049164 195.556322 
L 74.103273 174.473901 
L 74.211491 197.010346 
L 74.2656 196.831275 
L 74.319709 197.086772 
L 74.482036 200.240357 
L 74.590255 199.985005 
L 75.077236 202.619829 
L 76.754618 207.196099 
L 77.728582 208.984016 
L 78.756655 210.400549 
L 79.892945 211.625912 
L 81.408 212.870468 
L 83.085382 214.265084 
L 83.301818 214.435934 
L 84.329891 215.396143 
L 85.628509 216.809919 
L 87.414109 219.174747 
L 89.686691 222.553916 
L 89.7408 222.005364 
L 89.794909 222.383885 
L 89.849018 222.663147 
L 89.957236 222.105538 
L 90.119564 223.038396 
L 90.173673 222.92928 
L 90.390109 223.325834 
L 90.768873 223.972149 
L 91.742836 225.428072 
L 93.312 227.476679 
L 93.474327 227.628943 
L 93.744873 227.986184 
L 93.9072 228.142235 
L 94.177745 228.505003 
L 94.340073 228.635017 
L 94.556509 228.874648 
L 94.827055 229.220861 
L 94.881164 229.220612 
L 95.151709 229.558575 
L 95.314036 229.668262 
L 95.476364 229.875853 
L 95.530473 229.877922 
L 95.801018 230.196003 
L 95.963345 230.296898 
L 96.233891 230.594883 
L 96.396218 230.695925 
L 96.558545 230.887422 
L 96.720873 230.97608 
L 96.991418 231.258265 
L 97.153745 231.33654 
L 97.424291 231.6083 
L 97.586618 231.690895 
L 97.857164 231.93336 
L 98.019491 232.013995 
L 98.290036 232.25753 
L 98.452364 232.34314 
L 98.6688 232.489084 
L 99.047564 232.786567 
L 99.426327 233.034971 
L 99.588655 233.180411 
L 99.8592 233.334883 
L 100.237964 233.630028 
L 100.400291 233.718055 
L 100.779055 234.003474 
L 101.0496 234.150526 
L 101.428364 234.434723 
L 101.590691 234.548069 
L 101.861236 234.744888 
L 102.023564 234.836967 
L 102.294109 235.061589 
L 102.456436 235.132453 
L 102.726982 235.38369 
L 102.889309 235.477215 
L 103.268073 235.857775 
L 103.4304 235.950982 
L 103.809164 236.244201 
L 104.512582 236.719941 
L 104.729018 236.911715 
L 105.973527 237.95228 
L 106.352291 238.223387 
L 106.839273 238.625342 
L 106.947491 238.702426 
L 109.328291 240.464985 
L 109.9776 240.879725 
L 110.194036 241.067749 
L 110.464582 241.249336 
L 111.276218 241.731221 
L 111.546764 241.943947 
L 111.654982 241.987972 
L 112.033745 242.214025 
L 112.141964 242.28234 
L 112.466618 242.450924 
L 113.873455 243.178561 
L 114.144 243.31322 
L 114.360436 243.442418 
L 114.955636 243.678146 
L 115.442618 243.935068 
L 115.550836 243.937313 
L 115.875491 244.096054 
L 116.254255 244.264193 
L 116.633018 244.365112 
L 116.849455 244.482226 
L 117.228218 244.688229 
L 117.390545 244.678826 
L 117.661091 244.694552 
L 117.823418 244.71205 
L 118.418618 245.106777 
L 118.851491 245.245955 
L 119.392582 245.458622 
L 119.717236 245.528562 
L 120.041891 245.640353 
L 120.961745 245.986085 
L 121.069964 245.982039 
L 121.2864 246.06557 
L 121.394618 246.036647 
L 121.611055 246.165174 
L 121.719273 246.156718 
L 121.935709 246.273227 
L 122.043927 246.229939 
L 122.152145 246.326942 
L 122.206255 246.249277 
L 122.260364 246.329786 
L 122.639127 246.478116 
L 122.909673 246.510446 
L 123.180218 246.619574 
L 123.288436 246.64855 
L 123.504873 246.753295 
L 123.613091 246.722994 
L 123.775418 246.766693 
L 124.045964 246.909532 
L 124.316509 246.901407 
L 124.532945 247.088379 
L 124.803491 247.069815 
L 125.074036 247.260605 
L 125.182255 247.188763 
L 125.344582 247.250923 
L 125.615127 247.446279 
L 125.723345 247.365115 
L 125.939782 247.509824 
L 126.048 247.494196 
L 126.264436 247.578581 
L 126.6432 247.692873 
L 126.805527 247.737578 
L 132 249.682579 
L 132.162327 249.725342 
L 132.378764 249.799908 
L 133.460945 250.379926 
L 133.515055 250.333513 
L 133.731491 250.618211 
L 134.272582 250.658141 
L 134.489018 251.106144 
L 134.651345 251.130368 
L 134.759564 251.155204 
L 134.921891 250.990006 
L 135.300655 251.438437 
L 135.625309 251.577718 
L 135.949964 251.810231 
L 136.112291 251.583675 
L 136.436945 252.151525 
L 136.545164 252.225075 
L 137.086255 252.534319 
L 137.194473 252.50841 
L 137.410909 252.646191 
L 137.519127 252.69795 
L 137.843782 253.025524 
L 137.897891 252.951424 
L 137.952 253.026987 
L 138.114327 253.160824 
L 138.601309 253.350042 
L 138.763636 253.549548 
L 138.817745 253.46295 
L 138.980073 253.676041 
L 139.034182 253.609333 
L 139.196509 253.843476 
L 139.250618 253.710398 
L 139.412945 253.979529 
L 139.467055 253.788279 
L 139.629382 254.122125 
L 139.683491 254.006739 
L 139.845818 254.354263 
L 139.899927 254.117474 
L 139.954036 254.359953 
L 140.008145 254.20819 
L 140.170473 254.447744 
L 140.224582 254.262532 
L 140.386909 254.72161 
L 140.441018 254.446021 
L 140.603345 254.806882 
L 140.657455 254.650483 
L 140.819782 255.010569 
L 140.873891 254.743301 
L 141.036218 255.140321 
L 141.090327 254.798379 
L 141.252655 255.279603 
L 141.360873 255.297838 
L 141.414982 254.877497 
L 141.469091 255.298063 
L 141.631418 254.264791 
L 141.793745 255.344882 
L 141.847855 254.742219 
L 142.010182 255.570484 
L 142.064291 254.990742 
L 142.172509 254.962826 
L 142.226618 255.732094 
L 142.388945 254.954283 
L 142.551273 256.028419 
L 142.7136 255.192799 
L 142.875927 256.280216 
L 142.984145 256.309616 
L 143.038255 255.533971 
L 143.200582 256.559288 
L 143.254691 255.783576 
L 143.3088 256.616393 
L 143.362909 255.715299 
L 143.417018 256.612141 
L 143.471127 255.801034 
L 143.633455 256.776464 
L 143.687564 255.960694 
L 143.849891 256.976991 
L 143.904 256.064388 
L 143.958109 257.016938 
L 144.012218 256.142659 
L 144.174545 257.230504 
L 144.228655 256.156882 
L 144.282764 257.219147 
L 144.336873 256.2352 
L 144.4992 257.455231 
L 144.553309 256.496152 
L 144.715636 257.724892 
L 144.823855 257.743477 
L 144.877964 256.661984 
L 145.040291 258.03757 
L 145.0944 257.091628 
L 145.256727 258.339475 
L 145.310836 257.572349 
L 145.473164 258.557802 
L 145.527273 257.688026 
L 145.581382 258.619318 
L 145.743709 257.231481 
L 145.797818 258.428547 
L 145.960145 256.818949 
L 146.122473 258.572269 
L 146.176582 257.360027 
L 146.338909 258.970422 
L 146.393018 258.023908 
L 146.555345 259.462151 
L 146.609455 258.464781 
L 146.771782 259.74217 
L 146.934109 258.602681 
L 146.988218 259.717405 
L 147.150545 258.276479 
L 147.204655 259.581198 
L 147.366982 257.931594 
L 147.4752 257.920799 
L 147.529309 259.566073 
L 147.637527 259.586273 
L 147.691636 257.985242 
L 147.745745 259.466353 
L 147.799855 257.527714 
L 147.962182 260.259464 
L 148.016291 259.490475 
L 148.178618 261.134086 
L 148.232727 260.609268 
L 148.395055 261.68834 
L 148.449164 261.022802 
L 148.611491 261.868027 
L 148.6656 261.067583 
L 148.719709 261.922907 
L 148.882036 260.652082 
L 148.936145 261.511446 
L 149.098473 259.282518 
L 149.152582 260.777863 
L 149.314909 258.154965 
L 149.477236 260.458322 
L 149.531345 259.703589 
L 149.693673 262.092235 
L 149.747782 262.042323 
L 149.910109 263.277154 
L 149.964218 262.96136 
L 150.126545 263.76235 
L 150.180655 263.100204 
L 150.234764 263.844051 
L 150.288873 263.183025 
L 150.342982 263.774701 
L 150.505309 262.610952 
L 150.559418 263.246401 
L 150.721745 259.427 
L 150.775855 260.935146 
L 150.829964 257.070108 
L 150.884073 259.363637 
L 150.938182 258.152516 
L 150.992291 260.078341 
L 151.0464 257.286189 
L 151.208727 262.744953 
L 151.262836 262.824682 
L 151.425164 264.035948 
L 151.479273 263.452762 
L 151.6416 264.847175 
L 151.695709 263.843067 
L 151.749818 264.610747 
L 151.803927 264.454993 
L 151.858036 264.865217 
L 151.966255 264.902682 
L 152.020364 263.986886 
L 152.074473 264.895971 
L 152.2368 262.839504 
L 152.290909 263.437627 
L 152.345018 259.887214 
L 152.453236 260.063117 
L 152.507345 261.697695 
L 152.561455 259.323156 
L 152.615564 261.191781 
L 152.669673 259.985461 
L 152.832 263.905063 
L 152.886109 264.188385 
L 153.048436 265.691099 
L 153.210764 266.170936 
L 153.264873 266.104101 
L 153.4272 266.407977 
L 153.481309 266.283372 
L 153.643636 266.499277 
L 153.805964 266.539421 
L 153.860073 266.73879 
L 153.914182 266.445801 
L 153.968291 266.813187 
L 154.130618 265.690169 
L 154.184727 266.380269 
L 154.347055 262.684708 
L 154.401164 263.568391 
L 154.563491 257.889026 
L 154.725818 262.659801 
L 154.779927 262.980771 
L 154.996364 267.412816 
L 155.158691 268.099091 
L 155.483345 268.678203 
L 155.537455 269.145886 
L 155.591564 269.090313 
L 155.645673 269.100832 
L 155.808 269.333717 
L 155.970327 267.851729 
L 156.024436 268.312538 
L 156.294982 255.375496 
L 156.349091 257.705606 
L 156.4032 255.10605 
L 156.619636 269.058433 
L 156.673745 268.29433 
L 156.727855 269.42134 
L 156.781964 268.690934 
L 157.052509 269.656092 
L 157.106618 269.660612 
L 157.268945 270.038393 
L 157.323055 269.847259 
L 157.485382 270.220086 
L 157.539491 269.959554 
L 157.5936 270.232576 
L 157.701818 270.175436 
L 157.755927 270.388635 
L 157.810036 270.154911 
L 157.864145 270.352359 
L 158.026473 269.575332 
L 158.080582 269.798952 
L 158.351127 260.705496 
L 158.513455 266.229486 
L 158.567564 265.538981 
L 158.729891 267.402317 
L 158.784 266.814516 
L 159.000436 270.438592 
L 159.054545 270.633905 
L 159.108655 270.534048 
L 159.162764 270.5708 
L 159.433309 267.946531 
L 159.595636 269.165895 
L 159.757964 267.777266 
L 159.920291 269.41584 
L 159.9744 269.049095 
L 160.136727 270.207954 
L 160.190836 269.903055 
L 160.244945 270.252787 
L 160.299055 269.885686 
L 160.353164 270.218642 
L 160.515491 269.675629 
L 160.5696 270.209088 
L 160.623709 269.560321 
L 160.677818 270.312209 
L 160.840145 269.16954 
L 161.002473 270.36288 
L 161.056582 269.681023 
L 161.218909 270.610299 
L 161.273018 270.236589 
L 161.435345 271.153293 
L 161.597673 270.646304 
L 161.651782 271.035909 
L 161.705891 270.477837 
L 161.868218 271.135786 
L 161.922327 270.600034 
L 162.084655 271.34362 
L 162.246982 270.710738 
L 162.409309 271.397215 
L 162.463418 270.852899 
L 162.517527 271.412099 
L 162.571636 271.023363 
L 162.733964 271.899483 
L 162.896291 271.445202 
L 162.9504 271.898926 
L 163.004509 271.39897 
L 163.166836 272.02625 
L 163.220945 271.439312 
L 163.275055 272.053956 
L 163.329164 271.554361 
L 163.491491 272.212413 
L 163.5456 271.710815 
L 163.707927 272.376094 
L 163.762036 271.986665 
L 163.924364 272.526323 
L 163.978473 272.117146 
L 164.1408 272.603577 
L 164.194909 272.165509 
L 164.357236 272.903575 
L 164.519564 272.412544 
L 164.681891 273.192439 
L 164.844218 272.65357 
L 165.006545 273.354946 
L 165.060655 273.0895 
L 165.222982 273.380719 
L 165.277091 273.014231 
L 165.439418 273.537101 
L 165.493527 273.257677 
L 165.547636 273.61976 
L 165.655855 273.597383 
L 165.709964 273.232553 
L 165.872291 273.819807 
L 165.9264 273.601334 
L 166.088727 273.948359 
L 166.251055 273.568561 
L 166.413382 274.230435 
L 166.467491 274.079549 
L 166.5216 274.284686 
L 166.683927 273.776257 
L 166.846255 274.346481 
L 166.900364 274.1059 
L 167.062691 274.469916 
L 167.1168 274.127194 
L 167.170909 274.48577 
L 167.225018 274.241826 
L 167.387345 274.87195 
L 167.549673 274.374993 
L 167.603782 274.571066 
L 167.657891 273.951288 
L 167.712 274.452823 
L 167.766109 274.052517 
L 167.928436 274.952251 
L 168.090764 274.617141 
L 168.144873 274.767449 
L 168.198982 274.472448 
L 168.253091 274.546489 
L 168.415418 274.771716 
L 168.469527 274.401641 
L 168.523636 274.920653 
L 168.685964 272.737603 
L 168.794182 272.654022 
L 168.848291 275.211325 
L 168.9024 273.100041 
L 168.956509 275.698959 
L 169.010618 273.08269 
L 169.064727 275.55582 
L 169.227055 272.564674 
L 169.281164 275.065541 
L 169.335273 273.002498 
L 169.389382 274.851404 
L 169.443491 273.289924 
L 169.4976 274.468822 
L 169.551709 273.30411 
L 169.714036 274.23105 
L 169.930473 273.401173 
L 170.0928 274.927212 
L 170.146909 274.410211 
L 170.309236 275.768767 
L 170.471564 274.36805 
L 170.525673 275.372593 
L 170.579782 273.667903 
L 170.633891 275.202554 
L 170.688 273.939439 
L 170.850327 275.968983 
L 170.904436 275.606148 
L 171.066764 276.559583 
L 171.120873 277.058958 
L 171.174982 276.351403 
L 171.229091 277.183179 
L 171.391418 272.498544 
L 171.445527 275.871099 
L 171.499636 272.199101 
L 171.661964 277.390219 
L 171.824291 272.81522 
L 171.8784 276.682468 
L 171.932509 272.857897 
L 171.986618 276.279788 
L 172.040727 273.411827 
L 172.094836 276.064537 
L 172.148945 273.948921 
L 172.203055 275.565467 
L 172.257164 273.655567 
L 172.311273 274.856517 
L 172.365382 274.107066 
L 172.527709 275.029299 
L 172.581818 274.439042 
L 172.635927 274.939807 
L 172.690036 274.661495 
L 172.852364 275.733691 
L 172.906473 274.905805 
L 173.0688 276.46196 
L 173.122909 274.995907 
L 173.177018 276.693953 
L 173.339345 274.09739 
L 173.501673 276.959636 
L 173.609891 276.987666 
L 173.664 274.314175 
L 173.718109 276.787067 
L 173.772218 274.315844 
L 173.826327 276.592964 
L 173.934545 276.470246 
L 173.988655 274.989761 
L 174.042764 276.423412 
L 174.205091 275.131778 
L 174.367418 275.898229 
L 174.421527 275.944501 
L 174.583855 276.292164 
L 174.746182 275.655853 
L 174.908509 277.023653 
L 174.962618 276.06559 
L 175.070836 275.993513 
L 175.124945 277.575165 
L 175.287273 275.074226 
L 175.4496 277.75383 
L 175.557818 277.773056 
L 175.611927 275.288874 
L 175.666036 277.607366 
L 175.720145 275.18913 
L 175.774255 277.352923 
L 175.828364 275.140529 
L 175.882473 277.097982 
L 175.936582 275.33188 
L 175.990691 276.927196 
L 176.0448 275.78001 
L 176.098909 276.70774 
L 176.153018 276.289003 
L 176.207127 276.574164 
L 176.261236 276.396033 
L 176.423564 275.904692 
L 176.694109 277.656493 
L 176.856436 277.226186 
L 176.910545 277.140187 
L 176.964655 277.541368 
L 177.018764 277.005063 
L 177.072873 278.16535 
L 177.126982 276.661034 
L 177.181091 278.580308 
L 177.289309 278.584276 
L 177.343418 275.357968 
L 177.397527 278.926064 
L 177.505745 279.129168 
L 177.559855 274.987347 
L 177.613964 279.23637 
L 177.722182 279.16201 
L 177.776291 275.240288 
L 177.884509 275.450365 
L 177.938618 278.369167 
L 177.992727 275.522947 
L 178.046836 277.705345 
L 178.100945 275.628769 
L 178.155055 277.082387 
L 178.209164 275.958707 
L 178.317382 276.61239 
L 178.371491 276.185152 
L 178.479709 276.172046 
L 178.533818 277.160549 
L 178.587927 276.603975 
L 178.750255 278.121392 
L 178.804364 277.830419 
L 178.858473 277.846864 
L 178.912582 277.898357 
L 178.966691 277.523851 
L 179.0208 278.402569 
L 179.074909 277.346047 
L 179.129018 279.037558 
L 179.237236 279.152509 
L 179.291345 275.747125 
L 179.399564 275.679621 
L 179.453673 279.803306 
L 179.561891 279.924452 
L 179.616 275.997074 
L 179.670109 279.584704 
L 179.724218 275.700478 
L 179.832436 275.739007 
L 179.886545 278.402509 
L 179.940655 275.970572 
L 179.994764 278.080641 
L 180.048873 276.614291 
L 180.102982 277.957608 
L 180.157091 277.091505 
L 180.2112 277.532008 
L 180.265309 277.079999 
L 180.427636 277.485629 
L 180.535855 278.084423 
L 180.589964 277.943069 
L 180.644073 278.154234 
L 180.698182 277.722668 
L 180.752291 278.312199 
L 180.8064 277.492308 
L 180.860509 278.956789 
L 180.914618 277.404943 
L 180.968727 279.219435 
L 181.022836 276.916545 
L 181.076945 279.373647 
L 181.131055 276.776118 
L 181.239273 276.735887 
L 181.293382 279.657476 
L 181.347491 276.756098 
L 181.455709 276.841448 
L 181.509818 279.354358 
L 181.563927 276.970945 
L 181.618036 279.071459 
L 181.726255 278.96191 
L 181.780364 277.403411 
L 181.834473 278.662307 
L 181.888582 277.525015 
L 181.942691 278.276691 
L 181.9968 277.611563 
L 182.050909 278.022334 
L 182.105018 277.777556 
L 182.267345 278.633805 
L 182.321455 278.322927 
L 182.375564 278.934564 
L 182.429673 278.045795 
L 182.483782 279.121109 
L 182.537891 277.971266 
L 182.592 279.455409 
L 182.646109 277.681778 
L 182.700218 279.758531 
L 182.754327 277.516963 
L 182.808436 279.919716 
L 182.862545 277.365669 
L 182.916655 280.051686 
L 182.970764 277.449193 
L 183.024873 280.260223 
L 183.078982 277.454048 
L 183.133091 280.001205 
L 183.1872 277.277072 
L 183.295418 277.381323 
L 183.349527 279.546045 
L 183.457745 279.49435 
L 183.511855 278.03281 
L 183.620073 278.056232 
L 183.674182 278.871407 
L 183.728291 278.221781 
L 183.7824 278.67882 
L 183.836509 278.293542 
L 183.998836 278.909523 
L 184.052945 278.626612 
L 184.161164 278.611964 
L 184.215273 279.759401 
L 184.269382 278.550395 
L 184.323491 280.002892 
L 184.3776 278.148964 
L 184.485818 278.047574 
L 184.539927 280.600543 
L 184.594036 278.32138 
L 184.648145 280.763815 
L 184.810473 277.729782 
L 184.864582 280.233085 
L 184.918691 277.768536 
L 185.081018 280.08667 
L 185.135127 278.603103 
L 185.189236 279.938435 
L 185.351564 278.543918 
L 185.513891 278.848526 
L 185.568 278.830001 
L 185.838545 280.593056 
L 185.892655 279.84631 
L 185.946764 280.750231 
L 186.109091 278.417932 
L 186.1632 280.07129 
L 186.217309 278.026337 
L 186.379636 281.40352 
L 186.433745 279.348452 
L 186.487855 281.618737 
L 186.650182 278.401236 
L 186.704291 280.453386 
L 186.7584 277.907775 
L 186.812509 280.00814 
L 186.866618 278.232063 
L 187.028945 280.273068 
L 187.191273 279.024279 
L 187.245382 279.030111 
L 187.299491 278.895288 
L 187.678255 281.393328 
L 187.732364 280.113106 
L 187.786473 281.634714 
L 187.9488 278.733422 
L 188.002909 280.970712 
L 188.057018 278.264353 
L 188.219345 281.58979 
L 188.273455 279.624868 
L 188.327564 281.690367 
L 188.489891 279.572505 
L 188.544 280.488696 
L 188.598109 278.888429 
L 188.652218 279.887717 
L 188.706327 279.238505 
L 188.868655 280.313179 
L 188.922764 279.738812 
L 188.976873 280.309337 
L 189.030982 279.893758 
L 189.193309 281.443927 
L 189.247418 280.416118 
L 189.409745 281.99803 
L 189.572073 279.66418 
L 189.626182 281.526823 
L 189.788509 278.78182 
L 189.950836 281.715958 
L 190.004945 279.90894 
L 190.113164 279.923339 
L 190.167273 281.273157 
L 190.3296 279.432625 
L 190.491927 281.030431 
L 190.546036 280.140366 
L 190.708364 281.774445 
L 190.762473 280.641927 
L 190.9248 282.351225 
L 191.087127 280.761211 
L 191.141236 282.092838 
L 191.303564 280.11207 
L 191.357673 281.312287 
L 191.411782 279.532171 
L 191.465891 281.125903 
L 191.52 279.772057 
L 191.682327 281.832264 
L 191.736436 280.335164 
L 191.844655 280.360128 
L 192.006982 281.807467 
L 192.061091 280.407413 
L 192.1152 281.815828 
L 192.169309 280.456873 
L 192.331636 282.101445 
L 192.385745 280.899979 
L 192.548073 282.543915 
L 192.602182 281.546174 
L 192.656291 282.582011 
L 192.7104 281.59918 
L 192.764509 282.372319 
L 192.926836 281.245118 
L 192.980945 281.923333 
L 193.035055 281.139736 
L 193.089164 281.943768 
L 193.143273 281.241936 
L 193.3056 282.244705 
L 193.359709 281.511135 
L 193.522036 282.440873 
L 193.684364 281.286567 
L 193.792582 281.253263 
L 193.846691 282.335289 
L 193.9008 281.34159 
L 194.063127 282.536356 
L 194.225455 281.531556 
L 194.279564 282.475291 
L 194.333673 281.600415 
L 194.387782 282.421231 
L 194.550109 281.26087 
L 194.658327 281.233321 
L 194.712436 282.256401 
L 194.766545 281.392498 
L 194.928873 282.716033 
L 194.982982 281.954539 
L 195.145309 282.831037 
L 195.199418 282.062202 
L 195.361745 282.909702 
L 195.415855 282.183542 
L 195.578182 283.120006 
L 195.740509 282.385722 
L 195.794618 282.924817 
L 195.956945 282.267298 
L 196.119273 283.000962 
L 196.173382 282.337386 
L 196.335709 283.205734 
L 196.389818 282.448173 
L 196.498036 282.487216 
L 196.660364 283.239105 
L 196.714473 282.572678 
L 196.8768 283.381583 
L 196.930909 282.703038 
L 197.093236 283.478793 
L 197.255564 282.726385 
L 197.417891 283.547084 
L 197.472 282.848369 
L 197.634327 283.703675 
L 197.796655 282.941686 
L 197.958982 283.588268 
L 198.121309 282.899305 
L 198.283636 283.604408 
L 198.337745 282.912463 
L 198.391855 283.639199 
L 198.445964 282.921841 
L 198.608291 283.728847 
L 198.6624 283.043905 
L 198.824727 283.900987 
L 198.878836 283.277354 
L 198.987055 283.294914 
L 199.041164 283.843352 
L 199.095273 283.271213 
L 199.149382 283.810271 
L 199.203491 283.267317 
L 199.365818 284.150185 
L 199.528145 283.100589 
L 199.582255 283.564569 
L 199.636364 283.039155 
L 199.798691 283.882498 
L 199.8528 283.405859 
L 200.015127 284.196707 
L 200.177455 283.301047 
L 200.339782 284.149354 
L 200.502109 283.363133 
L 200.664436 284.395918 
L 200.826764 283.649102 
L 200.880873 284.205211 
L 201.0432 283.470619 
L 201.205527 284.536567 
L 201.367855 283.713629 
L 201.421964 284.32834 
L 201.476073 283.501937 
L 201.584291 283.50988 
L 201.746618 284.618883 
L 201.800727 284.00656 
L 201.854836 284.689699 
L 202.017164 283.714372 
L 202.071273 284.279277 
L 202.2336 283.535234 
L 202.395927 284.610095 
L 202.450036 283.986442 
L 202.612364 284.865445 
L 202.774691 283.881183 
L 202.8288 284.536823 
L 202.882909 283.816893 
L 202.937018 284.494443 
L 202.991127 283.922867 
L 203.045236 284.735739 
L 203.099345 283.984719 
L 203.261673 284.732186 
L 203.315782 284.055004 
L 203.478109 284.877645 
L 203.532218 284.167445 
L 203.586327 284.908599 
L 203.640436 284.256791 
L 203.748655 284.28027 
L 203.910982 285.181349 
L 203.965091 284.635926 
L 204.127418 285.349859 
L 204.289745 284.561733 
L 204.343855 284.969489 
L 204.506182 283.966801 
L 204.560291 284.477351 
L 204.6144 283.916859 
L 204.776727 285.140277 
L 204.830836 284.704464 
L 204.993164 286.227586 
L 205.047273 286.00604 
L 205.101382 286.619838 
L 205.371927 283.722316 
L 205.426036 283.927308 
L 205.480145 283.190678 
L 205.534255 283.627833 
L 205.588364 283.527243 
L 205.858909 286.475661 
L 205.913018 286.357795 
L 205.967127 286.943399 
L 206.129455 285.559119 
L 206.183564 285.739129 
L 206.345891 283.915062 
L 206.4 284.164339 
L 206.454109 283.602086 
L 206.508218 284.043217 
L 206.562327 284.160725 
L 206.724655 285.930266 
L 206.778764 285.761053 
L 206.941091 286.826228 
L 207.103418 285.682177 
L 207.157527 285.960262 
L 207.319855 284.681861 
L 207.373964 285.010531 
L 207.536291 284.349025 
L 207.806836 286.146349 
L 207.860945 286.017084 
L 208.023273 287.02032 
L 208.1856 285.474607 
L 208.239709 285.790578 
L 208.402036 284.385466 
L 208.456145 284.621009 
L 208.510255 284.085241 
L 208.564364 284.623524 
L 208.618473 284.548458 
L 208.889018 287.286763 
L 208.943127 286.939132 
L 208.997236 287.628139 
L 209.051345 287.000871 
L 209.105455 287.483706 
L 209.267782 285.680008 
L 209.321891 285.731686 
L 209.484218 284.220949 
L 209.808873 285.53219 
L 209.9712 287.488521 
L 210.025309 287.193164 
L 210.079418 287.889391 
L 210.133527 287.284314 
L 210.187636 287.8024 
L 210.349964 285.980141 
L 210.404073 285.990428 
L 210.5664 284.540167 
L 210.620509 284.633364 
L 210.674618 284.467778 
L 211.1616 288.279957 
L 211.323927 287.508642 
L 211.378036 287.792307 
L 211.648582 284.377663 
L 211.702691 284.369818 
L 211.810909 284.957127 
L 211.973236 286.527235 
L 212.135564 287.96293 
L 212.189673 287.482305 
L 212.243782 288.002373 
L 212.406109 286.890121 
L 212.460218 287.103555 
L 212.622545 285.582767 
L 212.676655 285.626663 
L 212.730764 285.412851 
L 213.217745 287.823794 
L 213.271855 287.386087 
L 213.325964 287.854354 
L 213.596509 285.863993 
L 213.650618 285.949204 
L 213.704727 285.739883 
L 213.758836 285.94933 
L 213.812945 285.880543 
L 214.083491 287.580595 
L 214.1376 287.312108 
L 214.299927 287.905236 
L 214.570473 285.968233 
L 214.624582 286.019155 
L 214.678691 285.904514 
L 214.949236 287.412458 
L 215.003345 287.16456 
L 215.165673 287.64168 
L 215.219782 287.284227 
L 215.273891 287.672448 
L 215.328 287.301044 
L 215.382109 287.614572 
L 215.544436 287.030166 
L 215.598545 287.183622 
L 215.760873 286.443449 
L 215.9232 286.835626 
L 215.977309 286.79933 
L 216.139636 287.579904 
L 216.193745 287.467695 
L 216.356073 288.438214 
L 216.410182 288.339863 
L 216.572509 288.913338 
L 216.734836 287.887049 
L 216.788945 287.992625 
L 217.005382 286.043566 
L 217.1136 285.904482 
L 217.330036 287.186507 
L 217.384145 287.080364 
L 217.546473 287.349322 
L 217.600582 287.125329 
L 217.762909 287.593719 
L 217.817018 287.495814 
L 218.087564 289.186971 
L 218.141673 288.973476 
L 218.195782 289.409566 
L 218.249891 288.97212 
L 218.304 289.339505 
L 218.466327 288.229223 
L 218.520436 288.233153 
L 218.736873 286.200595 
L 218.845091 286.226178 
L 219.169745 288.42171 
L 219.223855 288.375473 
L 219.386182 288.942137 
L 219.548509 288.329095 
L 219.602618 288.631527 
L 219.764945 288.112119 
L 219.819055 288.310281 
L 219.981382 287.799503 
L 220.035491 287.908779 
L 220.197818 287.486842 
L 220.630691 288.620518 
L 220.793018 289.246626 
L 220.901236 289.272831 
L 220.955345 288.845381 
L 221.009455 289.06724 
L 221.171782 288.147848 
L 221.225891 288.248426 
L 221.388218 287.707633 
L 221.442327 287.749798 
L 221.604655 287.594509 
L 222.308073 289.440159 
L 222.4704 288.799383 
L 222.524509 288.855337 
L 222.686836 288.109474 
L 222.740945 288.158898 
L 222.795055 287.933777 
L 222.849164 288.078711 
L 222.903273 288.011522 
L 223.173818 288.907457 
L 223.227927 288.879179 
L 223.390255 289.308806 
L 223.552582 288.829018 
L 223.606691 288.980115 
L 223.769018 288.746331 
L 223.931345 288.917223 
L 224.093673 288.761131 
L 224.256 288.952476 
L 224.418327 288.839618 
L 224.580655 289.044194 
L 224.634764 288.916696 
L 224.797091 289.297339 
L 224.959418 289.009603 
L 225.013527 289.154795 
L 225.175855 288.558546 
L 225.229964 288.678468 
L 225.392291 288.487843 
L 225.554618 288.826295 
L 225.608727 288.771515 
L 225.879273 289.768648 
L 225.933382 289.658322 
L 225.987491 289.832009 
L 226.0416 289.635648 
L 226.095709 289.741181 
L 226.474473 288.376708 
L 226.690909 288.533764 
L 226.961455 289.562859 
L 227.015564 289.509313 
L 227.177891 289.927236 
L 227.232 289.89317 
L 227.502545 290.699026 
L 227.556655 290.614399 
L 227.610764 290.743315 
L 228.151855 287.688504 
L 228.368291 289.157993 
L 228.4224 289.111236 
L 228.476509 289.298321 
L 228.530618 289.087513 
L 228.584727 289.23 
L 228.747055 288.953658 
L 228.963491 289.641362 
L 229.342255 291.49225 
L 229.396364 291.46228 
L 229.558691 291.914653 
L 229.721018 291.71435 
L 229.775127 291.79395 
L 230.045673 289.849797 
L 230.316218 286.17626 
L 230.640873 291.164988 
L 230.694982 291.136515 
L 230.857309 291.862371 
L 230.911418 291.698968 
L 230.965527 291.931944 
L 231.019636 291.727743 
L 231.073745 291.876088 
L 231.3984 289.969895 
L 231.614836 287.062556 
L 232.047709 292.467769 
L 232.155927 292.362881 
L 232.480582 289.351743 
L 232.697018 286.674183 
L 233.129891 292.741909 
L 233.184 292.663254 
L 233.238109 292.822743 
L 233.562764 290.413475 
L 233.7792 286.548845 
L 234.212073 292.49117 
L 234.428509 291.889587 
L 234.861382 287.530614 
L 235.294255 293.556038 
L 235.402473 293.50827 
L 235.781236 289.561441 
L 235.943564 286.870033 
L 236.376436 293.538227 
L 236.430545 293.511103 
L 236.484655 293.790243 
L 236.538764 293.588711 
L 236.592873 293.616841 
L 236.863418 290.728618 
L 237.133964 285.897004 
L 237.458618 293.513431 
L 237.675055 294.169942 
L 237.891491 293.353528 
L 238.107927 289.941654 
L 238.324364 284.923468 
L 238.594909 292.417507 
L 238.757236 293.927104 
L 238.865455 294.066521 
L 239.136 292.651978 
L 239.298327 289.820039 
L 239.514764 286.171326 
L 239.785309 292.59903 
L 239.947636 294.170632 
L 240.055855 294.230659 
L 240.272291 293.081009 
L 240.434618 289.629855 
L 240.596945 285.065182 
L 240.9216 293.442839 
L 241.138036 294.417358 
L 241.192145 294.32 
L 241.246255 294.301504 
L 241.462691 293.081765 
L 241.679127 288.21109 
L 241.787345 285.297508 
L 242.112 293.323052 
L 242.328436 294.430437 
L 242.382545 294.320963 
L 242.436655 294.30212 
L 242.7072 292.237518 
L 242.977745 286.13704 
L 243.031855 287.698897 
L 243.140073 290.493683 
L 243.356509 293.976004 
L 243.518836 294.533428 
L 243.735273 294.038616 
L 244.005818 290.465758 
L 244.168145 285.95023 
L 244.222255 287.139559 
L 244.276364 287.628947 
L 244.4928 293.707813 
L 244.709236 294.67303 
L 244.925673 294.311959 
L 245.196218 291.329054 
L 245.358545 286.945206 
L 245.466764 287.141273 
L 245.791418 294.186406 
L 245.953745 294.663025 
L 246.007855 294.671167 
L 246.224291 294.120938 
L 246.440727 291.883201 
L 246.657164 286.594819 
L 246.711273 287.812802 
L 246.765382 288.277429 
L 246.981818 293.842693 
L 247.198255 294.774275 
L 247.360582 294.523383 
L 247.414691 294.450895 
L 247.685236 291.977876 
L 247.955782 287.590888 
L 248.334545 294.496519 
L 248.496873 294.747032 
L 248.713309 294.086152 
L 248.929745 291.600128 
L 249.146182 287.762927 
L 249.470836 293.85805 
L 249.687273 294.765418 
L 249.8496 294.387947 
L 249.957818 293.864544 
L 250.066036 292.745826 
L 250.336582 288.026068 
L 250.390691 289.365611 
L 250.877673 294.835822 
L 251.04 294.490326 
L 251.148218 294.057072 
L 251.310545 292.71278 
L 251.526982 288.185216 
L 251.581091 288.935383 
L 251.6352 289.451426 
L 251.851636 294.014885 
L 252.068073 294.923502 
L 252.284509 294.916419 
L 252.500945 294.276558 
L 252.663273 292.535428 
L 252.933818 288.23267 
L 253.258473 294.665202 
L 253.4208 294.991899 
L 253.637236 294.945478 
L 253.691345 294.941916 
L 253.907782 294.10039 
L 254.070109 291.699771 
L 254.232436 287.142973 
L 254.286545 288.313352 
L 254.340655 288.938855 
L 254.557091 294.260737 
L 254.773527 295.010714 
L 255.098182 295.048745 
L 255.314618 294.637689 
L 255.476945 293.505801 
L 255.585164 291.5239 
L 255.747491 287.029129 
L 256.180364 294.990077 
L 256.234473 295.009468 
L 256.559127 294.126895 
L 256.721455 292.069105 
L 256.883782 288.625848 
L 256.937891 289.275673 
L 256.992 289.673135 
L 257.208436 294.288474 
L 257.370764 295.033455 
L 257.695418 295.112085 
L 257.911855 295.051256 
L 258.020073 294.920368 
L 258.1824 294.456867 
L 258.344727 292.758636 
L 258.615273 288.680473 
L 258.885818 294.503817 
L 259.048145 295.079105 
L 259.210473 295.06902 
L 259.426909 294.680674 
L 259.589236 293.83239 
L 259.751564 291.078291 
L 259.859782 288.429418 
L 259.913891 289.027611 
L 259.968 289.471324 
L 260.184436 294.628697 
L 260.346764 295.12274 
L 260.833745 294.640529 
L 260.996073 293.781791 
L 261.320727 289.490844 
L 261.699491 295.009576 
L 261.861818 295.149886 
L 262.078255 295.111677 
L 262.294691 294.91874 
L 262.511127 294.245388 
L 262.619345 293.137703 
L 262.889891 289.760553 
L 263.214545 294.962064 
L 263.376873 295.167534 
L 263.972073 294.776376 
L 264.1344 294.109497 
L 264.296727 291.995057 
L 264.459055 290.00586 
L 264.837818 295.084485 
L 265.000145 295.170486 
L 265.216582 295.095741 
L 265.649455 294.801013 
L 265.811782 294.052801 
L 266.136436 290.343537 
L 266.5152 295.031958 
L 266.623418 295.221699 
L 266.677527 295.185786 
L 267.218618 295.096177 
L 267.597382 294.825033 
L 267.759709 294.316101 
L 267.922036 292.066164 
L 268.030255 289.931356 
L 268.084364 290.472597 
L 268.138473 290.503886 
L 268.409018 295.117556 
L 268.517236 295.157526 
L 268.679564 295.122017 
L 269.815855 295.266723 
L 270.843927 295.233786 
L 271.330909 295.274142 
L 271.709673 295.266397 
L 272.900073 295.314219 
L 273.332945 295.312574 
L 275.713745 295.324592 
L 276.200727 294.958004 
L 276.308945 294.490511 
L 276.417164 293.22339 
L 276.579491 288.43333 
L 276.6336 289.386877 
L 276.687709 289.109045 
L 276.904145 294.811347 
L 277.066473 295.238355 
L 277.2288 295.163465 
L 277.499345 295.168557 
L 277.824 294.927453 
L 277.986327 294.255921 
L 278.256873 290.564991 
L 278.310982 291.317418 
L 278.365091 291.545162 
L 278.581527 294.861635 
L 278.743855 295.314787 
L 279.0144 295.235051 
L 279.393164 295.336351 
L 281.611636 295.356767 
L 282.856145 295.346096 
L 283.776 295.338967 
L 284.100655 295.351389 
L 285.723927 295.161558 
L 285.940364 294.785119 
L 286.210909 293.182272 
L 286.373236 291.913573 
L 286.860218 295.290962 
L 287.076655 295.376064 
L 289.728 295.357042 
L 290.539636 295.342001 
L 290.810182 295.299755 
L 291.243055 295.356617 
L 292.271127 295.365568 
L 293.082764 295.169885 
L 293.461527 295.303239 
L 294.219055 295.372482 
L 295.301236 295.31565 
L 295.571782 295.311306 
L 295.896436 295.356684 
L 307.421673 295.390475 
L 310.668218 295.427706 
L 311.912727 295.424974 
L 313.319564 295.43912 
L 318.243491 295.44355 
L 320.570182 295.45053 
L 327.117382 295.458384 
L 328.361891 295.46064 
L 331.229673 295.464443 
L 332.961164 295.465029 
L 338.426182 295.469342 
L 343.999418 295.471796 
L 360.340364 295.479028 
L 398.487273 295.488 
L 398.487273 295.488 
" clip-path="url(#p63d838affe)" style="fill: none; stroke: #1f77b4; stroke-width: 1.5; stroke-linecap: square"/>
   </g>
   <g id="patch_3">
    <path d="M 57.6 307.584 
L 57.6 41.472 
" style="fill: none; stroke: #000000; stroke-width: 0.8; stroke-linejoin: miter; stroke-linecap: square"/>
   </g>
   <g id="patch_4">
    <path d="M 414.72 307.584 
L 414.72 41.472 
" style="fill: none; stroke: #000000; stroke-width: 0.8; stroke-linejoin: miter; stroke-linecap: square"/>
   </g>
   <g id="patch_5">
    <path d="M 57.6 307.584 
L 414.72 307.584 
" style="fill: none; stroke: #000000; stroke-width: 0.8; stroke-linejoin: miter; stroke-linecap: square"/>
   </g>
   <g id="patch_6">
    <path d="M 57.6 41.472 
L 414.72 41.472 
" style="fill: none; stroke: #000000; stroke-width: 0.8; stroke-linejoin: miter; stroke-linecap: square"/>
   </g>
   <g id="text_17">
    <!-- Loss plot -->
    <g transform="translate(209.593125 35.472) scale(0.12 -0.12)">
     <defs>
      <path id="DejaVuSans-4c" d="M 628 4666 
L 1259 4666 
L 1259 531 
L 3531 531 
L 3531 0 
L 628 0 
L 628 4666 
z
" transform="scale(0.015625)"/>
      <path id="DejaVuSans-20" transform="scale(0.015625)"/>
      <path id="DejaVuSans-74" d="M 1172 4494 
L 1172 3500 
L 2356 3500 
L 2356 3053 
L 1172 3053 
L 1172 1153 
Q 1172 725 1289 603 
Q 1406 481 1766 481 
L 2356 481 
L 2356 0 
L 1766 0 
Q 1100 0 847 248 
Q 594 497 594 1153 
L 594 3053 
L 172 3053 
L 172 3500 
L 594 3500 
L 594 4494 
L 1172 4494 
z
" transform="scale(0.015625)"/>
     </defs>
     <use xlink:href="#DejaVuSans-4c"/>
     <use xlink:href="#DejaVuSans-6f" x="53.962891"/>
     <use xlink:href="#DejaVuSans-73" x="115.144531"/>
     <use xlink:href="#DejaVuSans-73" x="167.244141"/>
     <use xlink:href="#DejaVuSans-20" x="219.34375"/>
     <use xlink:href="#DejaVuSans-70" x="251.130859"/>
     <use xlink:href="#DejaVuSans-6c" x="314.607422"/>
     <use xlink:href="#DejaVuSans-6f" x="342.390625"/>
     <use xlink:href="#DejaVuSans-74" x="403.572266"/>
    </g>
   </g>
  </g>
 </g>
 <defs>
  <clipPath id="p63d838affe">
   <rect x="57.6" y="41.472" width="357.12" height="266.112"/>
  </clipPath>
 </defs>
</svg>
